<svg width="170.94mm" height="29.498mm" version="1.1" viewBox="0 0 170.94 29.498" xmlns="http://www.w3.org/2000/svg">
 <g transform="translate(14.36 -181.71)">
  <path d="m0.38905 181.71a14.749 14.749 0 0 0-14.749 14.749 14.749 14.749 0 0 0 6.55 12.239l4.5326-5.3158a7.8723 7.8723 0 0 1-4.2057-6.9234 7.8723 7.8723 0 0 1 7.8722-7.8722 7.8723 7.8723 0 0 1 2.2238 0.35998l4.6744-5.4828a14.749 14.749 0 0 0-6.8982-1.754zm8.6085 2.8162-4.4811 5.2557a7.8723 7.8723 0 0 1 3.7448 6.6772 7.8723 7.8723 0 0 1-7.8722 7.8722 7.8723 7.8723 0 0 1-1.6911-0.19829l-4.7497 5.571a14.749 14.749 0 0 0 6.4409 1.5042 14.749 14.749 0 0 0 14.749-14.749 14.749 14.749 0 0 0-6.1409-11.933zm-8.6085 7.1374a4.7958 4.7958 0 0 0-4.7956 4.7956 4.7958 4.7958 0 0 0 4.7956 4.7959 4.7958 4.7958 0 0 0 4.7959-4.7959 4.7958 4.7958 0 0 0-4.7959-4.7956z" fill="#f0f" fill-opacity=".76471" stop-color="#000000" stroke-width=".14284" style="-inkscape-stroke:none;paint-order:stroke fill markers"/>
  <g fill="#fff" stroke-width=".71592" aria-label="BLOGTRON">
   <path d="m22.276 189.88q0-0.57273 0.57274-0.57273h9.3929q1.5464 0 2.52 0.37228 0.97365 0.37228 1.5178 1.0023 0.57274 0.63001 0.77319 1.4318 0.20046 0.80183 0.20046 1.6323 0 0.68729-0.28637 1.3459-0.28637 0.65865-0.8591 1.2314 0.77319 0.60137 1.1168 1.3459 0.37228 0.74456 0.37228 1.5178 0 0.83046-0.2291 1.6323-0.20046 0.80183-0.77319 1.4318-0.57274 0.60138-1.575 1.0023-1.0023 0.37228-2.5773 0.37228h-9.5933q-0.57274 0-0.57274-0.57274zm4.5819 4.8683h4.4387q1.2314 0 1.2314-0.71592t-1.2314-0.71592h-4.4387zm0 4.8683h4.7251q0.68728 0 0.97365-0.14319 0.315-0.17182 0.315-0.57273 0-0.40092-0.315-0.5441-0.28637-0.17182-0.97365-0.17182h-4.7251z"/>
   <path d="m39.601 189.88q0-0.57273 0.57274-0.57273h3.4364q0.57274 0 0.57274 0.57273v9.7365h7.9324q0.57274 0 0.57274 0.57273v2.8637q0 0.57274-0.57274 0.57274h-11.942q-0.57274 0-0.57274-0.57274z"/>
   <path d="m64.143 189.3q1.575 0 2.7491 0.60137 1.2027 0.60137 1.9759 1.6037 0.80183 1.0023 1.1741 2.291 0.40092 1.2886 0.40092 2.6632t-0.40092 2.6632q-0.37228 1.2887-1.1741 2.291-0.77319 1.0023-1.9759 1.6037-1.1741 0.60137-2.7491 0.60137h-3.7228q-1.575 0-2.7778-0.60137-1.1741-0.60138-1.9759-1.6037-0.77319-1.0023-1.1741-2.291-0.37228-1.2886-0.37228-2.6632t0.37228-2.6632q0.40092-1.2887 1.1741-2.291 0.80183-1.0023 1.9759-1.6037 1.2027-0.60137 2.7778-0.60137zm-2.2909 4.0092q-0.5441 0-1.0882 0.17182t-0.97365 0.5441-0.68728 0.97365q-0.25773 0.60138-0.25773 1.4605t0.25773 1.4605q0.25773 0.60137 0.68728 0.97365t0.97365 0.5441 1.0882 0.17182h0.8591q0.57274 0 1.0882-0.17182 0.5441-0.17182 0.97365-0.5441t0.68728-0.97365q0.25773-0.60138 0.25773-1.4605t-0.25773-1.4605q-0.25773-0.60137-0.68728-0.97365t-0.97365-0.5441q-0.51546-0.17182-1.0882-0.17182z"/>
   <path d="m87.768 195.98q0.57274 0 0.57274 0.57274v2.5487q0 0.85911-0.20046 1.6896-0.20046 0.80183-0.68728 1.4318-0.45819 0.63001-1.2887 1.0309-0.80183 0.37228-2.0046 0.37228h-5.6987q-1.575 0-2.7778-0.60137-1.1741-0.60138-1.9759-1.6037-0.77319-1.0023-1.1741-2.291-0.37228-1.2886-0.37228-2.6632t0.37228-2.6632q0.40092-1.2887 1.1741-2.291 0.80183-1.0023 1.9759-1.6037 1.2027-0.60137 2.7778-0.60137h7.4456q0.57274 0 0.57274 0.57273v2.8637q0 0.57273-0.57274 0.57273h-6.0137q-0.5441 0-1.0882 0.17182-0.5441 0.17182-0.97365 0.5441t-0.68728 0.97365q-0.25773 0.60138-0.25773 1.4605t0.25773 1.4605q0.25773 0.60137 0.68728 0.97365t0.97365 0.5441q0.5441 0.17182 1.0882 0.17182h2.2909q0.68728 0 1.1168-0.17182 0.45819-0.17182 0.45819-0.63001v-2.2623q0-0.57274 0.57274-0.57274z"/>
   <path d="m103.35 189.3q0.74456 0 0.74456 0.57273v2.8637q0 0.57273-0.74456 0.57273h-4.1237v9.7365q0 0.57274-0.57274 0.57274h-3.4364q-0.57274 0-0.57274-0.57274v-9.7365h-4.2955q-0.57274 0-0.57274-0.57273v-2.8637q0-0.57273 0.57274-0.57273z"/>
   <path d="m106.67 203.62q-0.57273 0-0.57273-0.57274v-13.173q0-0.57273 0.57273-0.57273h8.8201q1.5464 0 2.5487 0.40091 1.0309 0.40092 1.6323 1.0882 0.60137 0.65865 0.8591 1.5178 0.25774 0.83047 0.25774 1.7468 0 0.65864-0.14319 1.3459-0.11455 0.68728-0.42955 1.3459-0.315 0.63001-0.83047 1.1741-0.51546 0.51546-1.26 0.8591l2.4628 4.2669q0.14318 0.2291 0 0.40092-0.11455 0.17182-0.42955 0.17182h-3.7228q-0.315 0-0.45819-0.17182-0.11454-0.17182-0.25773-0.40092l-2.1478-3.7228h-2.8923v3.7228q0 0.57274-0.57274 0.57274zm4.0092-8.3047h3.5796q0.8591 0 1.3173-0.2291 0.48682-0.22909 0.48682-0.77319t-0.48682-0.77319q-0.45819-0.2291-1.3173-0.2291h-3.5796z"/>
   <path d="m132.53 189.3q1.575 0 2.7491 0.60137 1.2028 0.60137 1.9759 1.6037 0.80183 1.0023 1.1741 2.291 0.40091 1.2886 0.40091 2.6632t-0.40091 2.6632q-0.37228 1.2887-1.1741 2.291-0.77319 1.0023-1.9759 1.6037-1.1741 0.60137-2.7491 0.60137h-3.7228q-1.575 0-2.7778-0.60137-1.1741-0.60138-1.9759-1.6037-0.77319-1.0023-1.1741-2.291-0.37228-1.2886-0.37228-2.6632t0.37228-2.6632q0.40091-1.2887 1.1741-2.291 0.80183-1.0023 1.9759-1.6037 1.2028-0.60137 2.7778-0.60137zm-2.291 4.0092q-0.5441 0-1.0882 0.17182-0.54409 0.17182-0.97365 0.5441-0.42955 0.37228-0.68728 0.97365-0.25773 0.60138-0.25773 1.4605t0.25773 1.4605q0.25773 0.60137 0.68728 0.97365 0.42956 0.37228 0.97365 0.5441 0.5441 0.17182 1.0882 0.17182h0.85911q0.57273 0 1.0882-0.17182 0.54409-0.17182 0.97365-0.5441 0.42955-0.37228 0.68728-0.97365 0.25773-0.60138 0.25773-1.4605t-0.25773-1.4605q-0.25773-0.60137-0.68728-0.97365-0.42956-0.37228-0.97365-0.5441-0.51547-0.17182-1.0882-0.17182z"/>
   <path d="m141.12 189.88q0-0.57273 0.57274-0.57273h3.4364q0.25773 0 0.45818 0.20046l6.4146 7.4169v-7.0447q0-0.57273 0.57273-0.57273h3.4364q0.57274 0 0.57274 0.57273v13.173q0 0.57274-0.57274 0.57274h-3.4364q-0.37227 0-0.51546-0.28637l-6.3574-7.3883v7.1019q0 0.57274-0.57273 0.57274h-3.4364q-0.57274 0-0.57274-0.57274z"/>
  </g>
 </g>
</svg>
